<?xml version="1.0" encoding="utf-8"?>
<!-- Generator: Adobe Illustrator 21.0.2, SVG Export Plug-In . SVG Version: 6.00 Build 0)  -->
<svg version="1.1" fill="#fff" id="Layer_1" xmlns="http://www.w3.org/2000/svg" xmlns:xlink="http://www.w3.org/1999/xlink" x="0px" y="0px"
	 viewBox="0 0 100 100" style="enable-background:new 0 0 100 100;" xml:space="preserve">
<path d="M93,8H7c-1.1,0-2,0.9-2,2v66c0,1.1,0.9,2,2,2h34.3l-2.9,10H33c-1.1,0-2,0.9-2,2s0.9,2,2,2h7c0,0,0,0,0,0c0,0,0,0,0,0h20
	c0,0,0,0,0,0c0,0,0,0,0,0h7c1.1,0,2-0.9,2-2s-0.9-2-2-2h-5.5l-2.9-10H93c1.1,0,2-0.9,2-2V10C95,8.9,94.1,8,93,8z M91,12v50H9V12H91z
	 M57.3,88H42.7l2.9-10h9L57.3,88z M9,74v-8h82v8H9z M51.4,68.6C51.8,69,52,69.5,52,70c0,0.3,0,0.5-0.2,0.8c-0.1,0.2-0.2,0.5-0.4,0.6
	c-0.2,0.2-0.4,0.3-0.6,0.4C50.5,72,50.3,72,50,72s-0.5,0-0.8-0.2c-0.2-0.1-0.5-0.2-0.6-0.4c-0.2-0.2-0.3-0.4-0.4-0.6
	C48,70.5,48,70.3,48,70c0-0.5,0.2-1,0.6-1.4C49.3,67.8,50.7,67.8,51.4,68.6z"/>
</svg>
