<svg width="48" height="48" viewBox="0 0 48 48" fill="none" xmlns="http://www.w3.org/2000/svg">
<rect width="48" height="48" fill="#323238"/>
<path d="M35.2232 15.25H12.7769C11.2456 15.25 10 16.6091 10 18.2799V32.2201C10 33.8909 11.2456 35.25 12.7769 35.25H35.2232C36.7544 35.25 38 33.8909 38 32.2201V18.2799C38.0001 16.6091 36.7545 15.25 35.2232 15.25ZM36.1489 18.2799V32.2201C36.1489 32.3795 36.1077 32.5249 36.0471 32.659L29.5031 25.5182L36.147 18.269C36.147 18.273 36.1489 18.2759 36.1489 18.2799ZM11.8512 32.22V18.2799C11.8512 18.2759 11.8531 18.2731 11.8531 18.2691L18.497 25.5183L11.9525 32.659C11.8924 32.5249 11.8512 32.3795 11.8512 32.22ZM24.2857 28.3549C24.133 28.5215 23.8671 28.5215 23.7144 28.3549L13.5556 17.2699H34.445L24.2857 28.3549ZM19.8059 26.9465L22.4055 29.783C22.8317 30.248 23.398 30.504 24.0001 30.504C24.602 30.504 25.1684 30.248 25.5946 29.783L28.1944 26.9465L33.9527 33.2301H14.047L19.8059 26.9465Z" fill="white"/>
<rect x="9" y="7" width="3" height="3" fill="#323238"/>
</svg>
