<svg width="48" height="48" viewBox="0 0 48 48" fill="none" xmlns="http://www.w3.org/2000/svg">
<rect width="48" height="48" fill="#323238"/>
<g clip-path="url(#clip0_1:4)">
<path d="M12 14.7879C12 13.9798 12.2703 13.3131 12.8108 12.7879C13.3513 12.2626 14.0541 12 14.9189 12C15.7683 12 16.4556 12.2586 16.9807 12.7757C17.5212 13.3091 17.7915 14.004 17.7915 14.8606C17.7915 15.6364 17.529 16.2828 17.0039 16.8C16.4633 17.3333 15.7529 17.6 14.8726 17.6H14.8494C14 17.6 13.3127 17.3333 12.7876 16.8C12.2625 16.2667 12 15.5959 12 14.7879ZM12.3012 36V19.806H17.444V36H12.3012ZM20.2934 36H25.4363V26.9575C25.4363 26.3919 25.4981 25.9555 25.6216 25.6485C25.8378 25.099 26.166 24.6343 26.6062 24.2545C27.0463 23.8747 27.5984 23.6848 28.2625 23.6848C29.9923 23.6848 30.8571 24.905 30.8571 27.3454V36H36V26.7151C36 24.3232 35.4595 22.5091 34.3784 21.2727C33.2973 20.0363 31.8687 19.4182 30.0927 19.4182C28.1004 19.4182 26.5483 20.3151 25.4363 22.1091V22.1576H25.4131L25.4363 22.1091V19.806H20.2934C20.3243 20.3232 20.3398 21.9313 20.3398 24.6303C20.3398 27.3293 20.3243 31.1191 20.2934 36Z" fill="white"/>
</g>
<defs>
<clipPath id="clip0_1:4">
<rect width="24" height="24" fill="white" transform="translate(12 12)"/>
</clipPath>
</defs>
</svg>
